# xmcd CD database file generated by OrangeCD 6.1
#
# Track frame offsets:
#	150
#	2770
#	13782
#	29182
#	37020
#	44445
#	51117
#	57707
#	64002
#	73312
#	78765
#	85067
#	93572
#	101207
#	109317
#	113760
#	122022
#
# Disc length: 1742 seconds
#
# Revision: 0
# Processed by: cddbd v1.5.2PL0 Copyright (c) Steve Scherf et al.
# Submitted via: OrangeCD 6.1
#
DISCID=f206cc11
DTITLE=Gene Autry - With His Little Darlin' Mary Lee
DYEAR=2001
DGENRE=
TTITLE0=Dialogue
TTITLE1=Patsy's Birthday
TTITLE2=What's Your Favourite Holiday
TTITLE3=The Weedpecker Song
TTITLE4=A Song at Sunset
TTITLE5=Merry-Go Roundup
TTITLE6=Give Out With a Song
TTITLE7=Me And My Echo
TTITLE8=I'm the Only Lonely One
TTITLE9=I'm An Old Cowhand
TTITLE10=Swing of the Range
TTITLE11=Swingin' Sam the Cowboy Man
TTITLE12=Torpedoe Joe
TTITLE13=Sing A Song of Laughter
TTITLE14=Whistle
TTITLE15=Carry Me Back to the Lone Prairie
TTITLE16=Goodbye Little Darlin' Goodbye 
EXTD=
EXTT0=
EXTT1=
EXTT2=
EXTT3=
EXTT4=
EXTT5=
EXTT6=
EXTT7=
EXTT8=
EXTT9=
EXTT10=
EXTT11=
EXTT12=
EXTT13=
EXTT14=
EXTT15=
EXTT16=
PLAYORDER=
